<?xml version="1.0" standalone="no"?>
<!DOCTYPE svg PUBLIC "-//W3C//DTD SVG 20010904//EN"
 "http://www.w3.org/TR/2001/REC-SVG-20010904/DTD/svg10.dtd">
<svg version="1.0" xmlns="http://www.w3.org/2000/svg"
 width="300.000000pt" height="360.000000pt" viewBox="0 0 300.000000 360.000000"
 preserveAspectRatio="xMidYMid meet">

<g transform="translate(0.000000,360.000000) scale(0.100000,-0.100000)"
fill="#000000" stroke="none">
<path d="M1333 3458 c-13 -17 -27 -22 -49 -20 -19 2 -38 -3 -47 -12 -14 -14
-18 -14 -44 1 -36 20 -83 11 -90 -18 -3 -11 -11 -18 -17 -16 -50 19 -57 18
-87 -12 -28 -29 -32 -30 -53 -16 -27 18 -72 6 -83 -21 -4 -12 -14 -14 -39 -9
-28 5 -39 1 -59 -19 -14 -14 -25 -31 -25 -39 0 -10 -8 -13 -25 -9 -32 6 -69
-19 -85 -57 -7 -19 -20 -31 -30 -31 -10 0 -28 -12 -40 -27 -13 -17 -38 -32
-63 -38 -48 -12 -87 -60 -87 -106 0 -26 -3 -29 -35 -29 -41 0 -50 -22 -43
-100 4 -43 3 -49 -16 -54 -12 -3 -35 -19 -51 -36 -26 -28 -30 -39 -31 -93 -1
-56 -3 -63 -29 -79 -52 -31 -59 -70 -20 -112 l24 -26 -33 0 c-68 0 -89 -71
-36 -120 27 -26 28 -28 10 -33 -11 -3 -25 -17 -32 -32 -10 -22 -9 -32 6 -59 9
-18 30 -40 47 -50 36 -21 36 -27 -1 -48 -41 -23 -39 -57 6 -107 34 -39 35 -41
24 -82 -14 -52 -6 -100 20 -124 12 -10 50 -35 85 -54 49 -28 88 -62 163 -147
110 -124 129 -160 208 -401 58 -176 65 -212 65 -318 0 -104 -17 -195 -60 -317
-35 -99 -38 -126 -14 -175 33 -70 236 -178 430 -228 147 -39 302 -56 553 -62
207 -5 239 -4 268 11 38 20 62 62 62 112 0 85 62 244 114 293 18 17 56 25 216
46 107 14 218 32 246 40 110 32 185 138 187 262 0 67 -10 100 -51 166 -16 27
-16 28 4 45 38 30 57 80 50 132 -4 33 -2 56 9 76 8 16 15 39 15 52 0 29 -26
90 -47 115 -11 11 -13 21 -7 25 5 4 37 26 71 49 86 60 115 96 102 131 -10 29
-70 108 -191 251 -85 100 -98 134 -78 204 6 23 14 56 17 73 7 45 -44 186 -145
402 -76 163 -84 185 -73 208 17 38 14 213 -6 273 -19 59 -69 123 -111 140 -18
8 -33 24 -41 47 -11 31 -52 64 -81 64 -6 0 -22 -11 -35 -25 -14 -13 -25 -20
-25 -15 0 5 -12 23 -27 40 -23 27 -32 31 -65 28 -30 -3 -39 0 -44 14 -7 24
-52 58 -77 58 -11 0 -28 -7 -38 -16 -16 -15 -20 -15 -41 0 -29 21 -67 20 -90
-1 -11 -10 -18 -12 -18 -4 0 20 -51 61 -76 61 -13 0 -33 -9 -45 -21 l-21 -21
-22 21 c-28 26 -68 27 -90 2 -18 -20 -18 -20 -39 0 -28 26 -71 24 -94 -3z
m945 -640 l50 -11 70 -146 c85 -176 131 -283 161 -373 21 -63 21 -69 7 -113
-35 -100 -17 -172 68 -268 34 -40 93 -110 130 -155 77 -96 78 -89 -23 -160
-88 -61 -111 -82 -111 -102 0 -9 -27 -39 -59 -66 -32 -27 -66 -62 -76 -77 -19
-31 -33 -137 -18 -137 5 0 33 23 63 51 60 57 136 109 158 109 16 0 8 -36 -13
-60 -10 -11 -12 -33 -8 -76 5 -59 4 -62 -28 -92 -43 -40 -43 -83 0 -149 19
-28 31 -59 31 -79 0 -28 -5 -34 -40 -48 -50 -20 -61 -15 -127 58 -57 62 -66
94 -56 199 3 37 3 67 -1 67 -15 0 -58 -113 -72 -192 -28 -144 -53 -168 -177
-168 -109 0 -210 30 -381 115 -139 69 -264 110 -282 93 -9 -10 25 -152 58
-245 26 -73 37 -89 94 -142 63 -59 177 -141 241 -174 l31 -17 -18 -48 c-10
-26 -24 -85 -31 -131 -11 -71 -16 -85 -36 -94 -29 -13 -503 8 -618 27 -215 37
-417 114 -517 197 -43 34 -48 63 -23 122 30 72 65 212 75 297 14 119 0 210
-56 382 -44 134 -45 143 -28 153 38 21 63 54 74 96 19 78 72 233 93 274 l20
40 17 -60 c25 -87 36 -111 86 -187 119 -179 311 -275 418 -208 85 52 89 113
14 199 -17 19 -39 54 -49 78 -15 36 -23 44 -41 41 -19 -2 -23 -9 -21 -36 1
-37 5 -37 -95 0 -99 37 -104 62 -29 146 52 59 52 60 60 33 4 -14 5 -44 2 -67
-4 -30 -2 -44 10 -54 51 -42 70 117 24 201 -30 54 -109 99 -176 99 -74 0 -134
-75 -78 -96 9 -4 26 3 39 15 25 24 40 26 85 10 43 -15 40 -40 -13 -97 -54 -58
-66 -81 -66 -125 0 -66 56 -109 191 -147 82 -22 116 -43 139 -84 14 -26 14
-28 -15 -52 -60 -48 -147 -22 -258 76 -126 112 -205 310 -167 424 32 98 164
156 251 110 37 -18 59 -12 59 16 0 23 -66 59 -107 60 -13 0 -23 4 -23 9 0 12
165 156 230 201 122 83 124 83 338 90 l194 5 24 30 c30 38 30 67 -1 235 -13
73 -22 137 -19 141 8 14 84 31 174 39 126 11 125 11 178 -2z"/>
</g>
</svg>
